<svg xmlns="http://www.w3.org/2000/svg" viewBox="0 0 900 900">
  <style>
    /* Light mode - dark logo */
    .logo-path { fill: #000000; }
    
    /* Dark mode - light logo */
    @media (prefers-color-scheme: dark) {
      .logo-path { fill: #ffffff; }
    }
  </style>
  
  <g>
    <path class="logo-path" style="opacity:0.984" d="M 235.5,240.5 C 262.175,240.167 288.842,240.5 315.5,241.5C 362.962,369.051 410.128,496.718 457,624.5C 460.989,635.487 468.156,643.654 478.5,649C 481.063,650.079 483.729,650.579 486.5,650.5C 486.5,652.167 486.5,653.833 486.5,655.5C 444.5,655.5 402.5,655.5 360.5,655.5C 360.5,653.833 360.5,652.167 360.5,650.5C 366.594,650.192 371.761,647.859 376,643.5C 376.923,641.966 377.423,640.299 377.5,638.5C 367.68,610.854 357.847,583.187 348,555.5C 327.15,529.992 301.65,510.492 271.5,497C 230.489,477.798 187.322,468.964 142,470.5C 117.488,470.312 93.1544,471.979 69,475.5C 68.8333,475.167 68.6667,474.833 68.5,474.5C 113.342,459.624 159.342,450.457 206.5,447C 242.884,445.343 278.05,451.176 312,464.5C 312.5,464.167 313,463.833 313.5,463.5C 291.962,402.053 270.129,340.72 248,279.5C 243.518,266.557 239.352,253.557 235.5,240.5 Z"/>
  </g>
  <g>
    <path class="logo-path" style="opacity:0.982" d="M 502.5,240.5 C 545.167,240.5 587.833,240.5 630.5,240.5C 630.5,242.833 630.5,245.167 630.5,247.5C 619.897,247.047 612.064,251.381 607,260.5C 606.333,331.833 606.333,403.167 607,474.5C 630.667,448.833 654.333,423.167 678,397.5C 678.333,399.833 678.667,402.167 679,404.5C 727,486.5 775,568.5 823,650.5C 825.35,652.683 827.517,655.016 829.5,657.5C 786.839,658.5 744.172,658.833 701.5,658.5C 701.5,656.167 701.5,653.833 701.5,651.5C 714.039,649.766 718.539,642.766 715,630.5C 684.747,578.33 654.747,525.996 625,473.5C 624.439,472.978 623.772,472.645 623,472.5C 614.136,478.875 608.803,487.542 607,498.5C 606.333,544.5 606.333,590.5 607,636.5C 612.165,645.667 619.999,650.667 630.5,651.5C 630.5,653.833 630.5,656.167 630.5,658.5C 587.833,658.5 545.167,658.5 502.5,658.5C 502.5,656.167 502.5,653.833 502.5,651.5C 511.706,651.134 517.54,646.467 520,637.5C 520.667,511.5 520.667,385.5 520,259.5C 517.329,251.01 511.496,247.01 502.5,247.5C 502.5,245.167 502.5,242.833 502.5,240.5 Z"/>
  </g>
  <g>
    <path class="logo-path" style="opacity:0.958" d="M 701.5,240.5 C 742.172,240.167 782.839,240.5 823.5,241.5C 789.519,279.982 755.352,318.315 721,356.5C 720.333,353.833 720.333,351.167 721,348.5C 734.552,334.516 741.052,317.682 740.5,298C 740.74,280.705 734.74,266.039 722.5,254C 716.232,249.522 709.232,247.355 701.5,247.5C 701.5,245.167 701.5,242.833 701.5,240.5 Z"/>
  </g>
  <g>
    <path class="logo-path" style="opacity:0.964" d="M 159.5,578.5 C 161.527,578.338 163.527,578.505 165.5,579C 157.348,597.936 157.514,616.769 166,635.5C 174.175,646.173 185.008,651.173 198.5,650.5C 198.5,652.167 198.5,653.833 198.5,655.5C 157.833,655.5 117.167,655.5 76.5,655.5C 76.5,653.833 76.5,652.167 76.5,650.5C 81.6372,650.506 86.6372,649.673 91.5,648C 96.8333,645.333 102.167,642.667 107.5,640C 127.138,626.696 142.972,609.863 155,589.5C 157.066,586.039 158.566,582.373 159.5,578.5 Z"/>
  </g>
</svg>